<svg height="50" viewBox="0 0 50 50" width="50" xmlns="http://www.w3.org/2000/svg"><g fill="none" fill-rule="evenodd"><rect height="48" rx="6" stroke="#7b9757" stroke-width="2" width="48" x="1" y="1"/><path d="m30.9999642 17.795342v-3.6702946c0-.6234269-.5015704-1.1249973-1.1249973-1.1249973h-9.7499767c-.6234269 0-1.1249974.5015704-1.1249974 1.1249973v3.6702946c1.6687278-1.3921934 3.7734286-2.1702982 5.9999857-2.1702982 2.2218881 0 4.331258.7781048 5.9999857 2.1702982zm-5.9999857 15.4546598c4.5562483 0 8.2499804-3.6937321 8.2499804-8.2499803 0-4.5562483-3.6937321-8.2499804-8.2499804-8.2499804-4.5562482 0-8.2499803 3.6937321-8.2499803 8.2499804 0 4.5562482 3.6937321 8.2499803 8.2499803 8.2499803zm1.6968802-4.8609351-2.7796718-2.0250043c-.1453396-.1078031-.2297052-.2765344-.2297052-.4546498v-5.4093804c0-.309356.2531427-.5624987.5624986-.5624987h1.4999965c.3093559 0 .5624986.2531427.5624986.5624987v4.3593646l1.9312546 1.4062466c.2484277.1828304.3046867.5343921.1218564.787489l-.8812388 1.2140779c-.1828304.253097-.534392.309356-.7874889.1218564zm3.1781082 8.6109261c.6234269 0 1.1249973-.5015704 1.1249973-1.1249973v-3.6702946c-1.6687277 1.3921934-3.7780976 2.1702982-5.9999857 2.1702982-2.2265571 0-4.3312579-.7828198-5.9999857-2.1702982v3.6702946c0 .6234269.5015705 1.1249973 1.1249974 1.1249973z" fill="#7b9757" fill-rule="nonzero"/></g></svg>